<mxfile host="app.diagrams.net" modified="2020-09-02T10:04:35.287Z" agent="5.0 (Macintosh; Intel Mac OS X 10_15_6) AppleWebKit/605.1.15 (KHTML, like Gecko) Version/13.1.2 Safari/605.1.15" etag="7gE98RAYytUbOcbzc2Bq" version="13.6.6" type="github">
  <diagram id="qb0jEIEVGg2ikdecJ9rK" name="Page-1">
    <mxGraphModel dx="830" dy="702" grid="1" gridSize="10" guides="1" tooltips="1" connect="1" arrows="1" fold="1" page="1" pageScale="1" pageWidth="827" pageHeight="1169" math="0" shadow="0">
      <root>
        <mxCell id="0" />
        <mxCell id="1" parent="0" />
        <mxCell id="1EJunw1Yd82bTH1JV0ww-31" style="edgeStyle=orthogonalEdgeStyle;rounded=0;orthogonalLoop=1;jettySize=auto;html=1;exitX=0.5;exitY=0;exitDx=0;exitDy=0;entryX=0.5;entryY=1;entryDx=0;entryDy=0;entryPerimeter=0;startArrow=classic;startFill=1;endArrow=classic;endFill=1;" parent="1" source="1EJunw1Yd82bTH1JV0ww-21" target="1EJunw1Yd82bTH1JV0ww-27" edge="1">
          <mxGeometry relative="1" as="geometry" />
        </mxCell>
        <mxCell id="1EJunw1Yd82bTH1JV0ww-21" value="&lt;span&gt;Datenbank&lt;/span&gt;&lt;br&gt;&lt;span&gt;MySQL&lt;/span&gt;&lt;br&gt;&lt;span&gt;Containername:&lt;br&gt;regulation-db&lt;/span&gt;" style="shape=datastore;whiteSpace=wrap;html=1;" parent="1" vertex="1">
          <mxGeometry x="352" y="475" width="120" height="110" as="geometry" />
        </mxCell>
        <mxCell id="1EJunw1Yd82bTH1JV0ww-24" value="Backend" style="swimlane;fontStyle=0;childLayout=stackLayout;horizontal=1;startSize=26;fillColor=none;horizontalStack=0;resizeParent=1;resizeParentMax=0;resizeLast=0;collapsible=1;marginBottom=0;" parent="1" vertex="1">
          <mxGeometry x="322" y="315" width="180" height="104" as="geometry">
            <mxRectangle x="140" y="520" width="50" height="26" as="alternateBounds" />
          </mxGeometry>
        </mxCell>
        <mxCell id="1EJunw1Yd82bTH1JV0ww-25" value="SpringBoot" style="text;strokeColor=none;fillColor=none;align=left;verticalAlign=top;spacingLeft=4;spacingRight=4;overflow=hidden;rotatable=0;points=[[0,0.5],[1,0.5]];portConstraint=eastwest;" parent="1EJunw1Yd82bTH1JV0ww-24" vertex="1">
          <mxGeometry y="26" width="180" height="26" as="geometry" />
        </mxCell>
        <mxCell id="1EJunw1Yd82bTH1JV0ww-26" value="Name: regulationserviceapi" style="text;strokeColor=none;fillColor=none;align=left;verticalAlign=top;spacingLeft=4;spacingRight=4;overflow=hidden;rotatable=0;points=[[0,0.5],[1,0.5]];portConstraint=eastwest;" parent="1EJunw1Yd82bTH1JV0ww-24" vertex="1">
          <mxGeometry y="52" width="180" height="26" as="geometry" />
        </mxCell>
        <mxCell id="1EJunw1Yd82bTH1JV0ww-27" value="Rest-API" style="text;strokeColor=none;fillColor=none;align=left;verticalAlign=top;spacingLeft=4;spacingRight=4;overflow=hidden;rotatable=0;points=[[0,0.5],[1,0.5]];portConstraint=eastwest;" parent="1EJunw1Yd82bTH1JV0ww-24" vertex="1">
          <mxGeometry y="78" width="180" height="26" as="geometry" />
        </mxCell>
        <mxCell id="1EJunw1Yd82bTH1JV0ww-37" style="edgeStyle=orthogonalEdgeStyle;rounded=0;orthogonalLoop=1;jettySize=auto;html=1;exitX=1;exitY=0.5;exitDx=0;exitDy=0;startArrow=none;startFill=0;endArrow=classic;endFill=1;" parent="1" source="1EJunw1Yd82bTH1JV0ww-26" target="1EJunw1Yd82bTH1JV0ww-32" edge="1">
          <mxGeometry relative="1" as="geometry" />
        </mxCell>
        <mxCell id="1EJunw1Yd82bTH1JV0ww-45" style="edgeStyle=orthogonalEdgeStyle;rounded=0;orthogonalLoop=1;jettySize=auto;html=1;exitX=0;exitY=0.5;exitDx=0;exitDy=0;startArrow=classic;startFill=1;endArrow=classic;endFill=1;" parent="1" source="1EJunw1Yd82bTH1JV0ww-25" target="1EJunw1Yd82bTH1JV0ww-42" edge="1">
          <mxGeometry relative="1" as="geometry" />
        </mxCell>
        <mxCell id="1EJunw1Yd82bTH1JV0ww-32" value="Frontend" style="swimlane;fontStyle=0;childLayout=stackLayout;horizontal=1;startSize=26;fillColor=none;horizontalStack=0;resizeParent=1;resizeParentMax=0;resizeLast=0;collapsible=1;marginBottom=0;" parent="1" vertex="1">
          <mxGeometry x="462" y="195" width="140" height="78" as="geometry" />
        </mxCell>
        <mxCell id="1EJunw1Yd82bTH1JV0ww-33" value="React/Node" style="text;strokeColor=none;fillColor=none;align=left;verticalAlign=top;spacingLeft=4;spacingRight=4;overflow=hidden;rotatable=0;points=[[0,0.5],[1,0.5]];portConstraint=eastwest;" parent="1EJunw1Yd82bTH1JV0ww-32" vertex="1">
          <mxGeometry y="26" width="140" height="26" as="geometry" />
        </mxCell>
        <mxCell id="1EJunw1Yd82bTH1JV0ww-34" value="Name:Â publicdashboard" style="text;strokeColor=none;fillColor=none;align=left;verticalAlign=top;spacingLeft=4;spacingRight=4;overflow=hidden;rotatable=0;points=[[0,0.5],[1,0.5]];portConstraint=eastwest;" parent="1EJunw1Yd82bTH1JV0ww-32" vertex="1">
          <mxGeometry y="52" width="140" height="26" as="geometry" />
        </mxCell>
        <mxCell id="1EJunw1Yd82bTH1JV0ww-56" style="edgeStyle=orthogonalEdgeStyle;rounded=0;orthogonalLoop=1;jettySize=auto;html=1;exitX=0.5;exitY=0;exitDx=0;exitDy=0;startArrow=classic;startFill=1;endArrow=none;endFill=0;" parent="1" source="1EJunw1Yd82bTH1JV0ww-42" target="1EJunw1Yd82bTH1JV0ww-51" edge="1">
          <mxGeometry relative="1" as="geometry" />
        </mxCell>
        <mxCell id="1EJunw1Yd82bTH1JV0ww-42" value="Frontend" style="swimlane;fontStyle=0;childLayout=stackLayout;horizontal=1;startSize=26;fillColor=none;horizontalStack=0;resizeParent=1;resizeParentMax=0;resizeLast=0;collapsible=1;marginBottom=0;" parent="1" vertex="1">
          <mxGeometry x="212" y="195" width="140" height="78" as="geometry" />
        </mxCell>
        <mxCell id="1EJunw1Yd82bTH1JV0ww-43" value="React/Node" style="text;strokeColor=none;fillColor=none;align=left;verticalAlign=top;spacingLeft=4;spacingRight=4;overflow=hidden;rotatable=0;points=[[0,0.5],[1,0.5]];portConstraint=eastwest;" parent="1EJunw1Yd82bTH1JV0ww-42" vertex="1">
          <mxGeometry y="26" width="140" height="26" as="geometry" />
        </mxCell>
        <mxCell id="1EJunw1Yd82bTH1JV0ww-44" value="Name: importdashboard" style="text;strokeColor=none;fillColor=none;align=left;verticalAlign=top;spacingLeft=4;spacingRight=4;overflow=hidden;rotatable=0;points=[[0,0.5],[1,0.5]];portConstraint=eastwest;" parent="1EJunw1Yd82bTH1JV0ww-42" vertex="1">
          <mxGeometry y="52" width="140" height="26" as="geometry" />
        </mxCell>
        <mxCell id="1EJunw1Yd82bTH1JV0ww-55" style="edgeStyle=orthogonalEdgeStyle;rounded=0;orthogonalLoop=1;jettySize=auto;html=1;exitX=0.5;exitY=0;exitDx=0;exitDy=0;startArrow=classic;startFill=1;endArrow=none;endFill=0;" parent="1" source="1EJunw1Yd82bTH1JV0ww-46" target="1EJunw1Yd82bTH1JV0ww-51" edge="1">
          <mxGeometry relative="1" as="geometry" />
        </mxCell>
        <mxCell id="1EJunw1Yd82bTH1JV0ww-46" value="Scheduler" style="swimlane;fontStyle=0;childLayout=stackLayout;horizontal=1;startSize=26;fillColor=none;horizontalStack=0;resizeParent=1;resizeParentMax=0;resizeLast=0;collapsible=1;marginBottom=0;" parent="1" vertex="1">
          <mxGeometry x="42" y="195" width="140" height="78" as="geometry" />
        </mxCell>
        <mxCell id="1EJunw1Yd82bTH1JV0ww-47" value="Node" style="text;strokeColor=none;fillColor=none;align=left;verticalAlign=top;spacingLeft=4;spacingRight=4;overflow=hidden;rotatable=0;points=[[0,0.5],[1,0.5]];portConstraint=eastwest;" parent="1EJunw1Yd82bTH1JV0ww-46" vertex="1">
          <mxGeometry y="26" width="140" height="26" as="geometry" />
        </mxCell>
        <mxCell id="1EJunw1Yd82bTH1JV0ww-48" value="Name: importscheduler" style="text;strokeColor=none;fillColor=none;align=left;verticalAlign=top;spacingLeft=4;spacingRight=4;overflow=hidden;rotatable=0;points=[[0,0.5],[1,0.5]];portConstraint=eastwest;" parent="1EJunw1Yd82bTH1JV0ww-46" vertex="1">
          <mxGeometry y="52" width="140" height="26" as="geometry" />
        </mxCell>
        <mxCell id="1EJunw1Yd82bTH1JV0ww-50" style="edgeStyle=orthogonalEdgeStyle;rounded=0;orthogonalLoop=1;jettySize=auto;html=1;exitX=0;exitY=0.5;exitDx=0;exitDy=0;startArrow=classic;startFill=1;endArrow=none;endFill=0;" parent="1" source="1EJunw1Yd82bTH1JV0ww-26" target="1EJunw1Yd82bTH1JV0ww-46" edge="1">
          <mxGeometry relative="1" as="geometry" />
        </mxCell>
        <mxCell id="1EJunw1Yd82bTH1JV0ww-51" value="Backend" style="swimlane;fontStyle=0;childLayout=stackLayout;horizontal=1;startSize=26;fillColor=none;horizontalStack=0;resizeParent=1;resizeParentMax=0;resizeLast=0;collapsible=1;marginBottom=0;" parent="1" vertex="1">
          <mxGeometry x="102" y="45" width="180" height="104" as="geometry">
            <mxRectangle x="140" y="520" width="50" height="26" as="alternateBounds" />
          </mxGeometry>
        </mxCell>
        <mxCell id="1EJunw1Yd82bTH1JV0ww-52" value="SpringBoot" style="text;strokeColor=none;fillColor=none;align=left;verticalAlign=top;spacingLeft=4;spacingRight=4;overflow=hidden;rotatable=0;points=[[0,0.5],[1,0.5]];portConstraint=eastwest;" parent="1EJunw1Yd82bTH1JV0ww-51" vertex="1">
          <mxGeometry y="26" width="180" height="26" as="geometry" />
        </mxCell>
        <mxCell id="1EJunw1Yd82bTH1JV0ww-53" value="Name: regulationdataserver" style="text;strokeColor=none;fillColor=none;align=left;verticalAlign=top;spacingLeft=4;spacingRight=4;overflow=hidden;rotatable=0;points=[[0,0.5],[1,0.5]];portConstraint=eastwest;" parent="1EJunw1Yd82bTH1JV0ww-51" vertex="1">
          <mxGeometry y="52" width="180" height="26" as="geometry" />
        </mxCell>
        <mxCell id="1EJunw1Yd82bTH1JV0ww-54" value="Rest-API" style="text;strokeColor=none;fillColor=none;align=left;verticalAlign=top;spacingLeft=4;spacingRight=4;overflow=hidden;rotatable=0;points=[[0,0.5],[1,0.5]];portConstraint=eastwest;" parent="1EJunw1Yd82bTH1JV0ww-51" vertex="1">
          <mxGeometry y="78" width="180" height="26" as="geometry" />
        </mxCell>
        <mxCell id="1EJunw1Yd82bTH1JV0ww-63" value="" style="endArrow=none;dashed=1;html=1;strokeColor=#FF0000;dashPattern=1 4;" parent="1" edge="1">
          <mxGeometry width="50" height="50" relative="1" as="geometry">
            <mxPoint x="292" y="615" as="sourcePoint" />
            <mxPoint x="292" y="615" as="targetPoint" />
            <Array as="points">
              <mxPoint x="522" y="615" />
              <mxPoint x="522" y="285" />
              <mxPoint x="292" y="285" />
            </Array>
          </mxGeometry>
        </mxCell>
        <mxCell id="1EJunw1Yd82bTH1JV0ww-64" value="" style="endArrow=none;dashed=1;html=1;strokeColor=#33001A;" parent="1" edge="1">
          <mxGeometry width="50" height="50" relative="1" as="geometry">
            <mxPoint x="302" y="445" as="sourcePoint" />
            <mxPoint x="302" y="445" as="targetPoint" />
            <Array as="points">
              <mxPoint x="612" y="445" />
              <mxPoint x="612" y="185" />
              <mxPoint x="452" y="185" />
              <mxPoint x="452" y="305" />
              <mxPoint x="302" y="305" />
            </Array>
          </mxGeometry>
        </mxCell>
        <mxCell id="1EJunw1Yd82bTH1JV0ww-69" value="Netzwerk: dbnet" style="text;html=1;strokeColor=none;fillColor=none;align=center;verticalAlign=middle;whiteSpace=wrap;rounded=0;" parent="1" vertex="1">
          <mxGeometry x="289" y="593" width="100" height="25" as="geometry" />
        </mxCell>
        <mxCell id="1EJunw1Yd82bTH1JV0ww-72" value="Netzwerk: publicnet" style="text;html=1;strokeColor=none;fillColor=none;align=center;verticalAlign=middle;whiteSpace=wrap;rounded=0;" parent="1" vertex="1">
          <mxGeometry x="302" y="422" width="110" height="25" as="geometry" />
        </mxCell>
        <mxCell id="1EJunw1Yd82bTH1JV0ww-73" value="" style="endArrow=none;dashed=1;html=1;strokeColor=#009900;dashPattern=1 1;" parent="1" edge="1">
          <mxGeometry width="50" height="50" relative="1" as="geometry">
            <mxPoint x="32" y="425" as="sourcePoint" />
            <mxPoint x="32" y="425" as="targetPoint" />
            <Array as="points">
              <mxPoint x="512" y="425" />
              <mxPoint x="512" y="295" />
              <mxPoint x="362" y="295" />
              <mxPoint x="362" y="35" />
              <mxPoint x="32" y="35" />
            </Array>
          </mxGeometry>
        </mxCell>
        <mxCell id="1EJunw1Yd82bTH1JV0ww-74" value="Netzwerk: importnet" style="text;html=1;strokeColor=none;fillColor=none;align=center;verticalAlign=middle;whiteSpace=wrap;rounded=0;" parent="1" vertex="1">
          <mxGeometry x="30" y="404" width="122" height="25" as="geometry" />
        </mxCell>
      </root>
    </mxGraphModel>
  </diagram>
</mxfile>
